<svg width="161" height="161" viewBox="0 0 161 161" fill="none" xmlns="http://www.w3.org/2000/svg">
<path d="M93.9167 95.6072V109.628C87.8451 107.481 81.3471 106.823 74.9683 107.708C68.5896 108.593 62.5163 110.995 57.2585 114.714C52.0007 118.432 47.712 123.358 44.7524 129.078C41.7928 134.797 40.2488 141.143 40.25 147.583H26.8333C26.8302 139.391 28.7026 131.307 32.3071 123.95C35.9116 116.594 41.1524 110.16 47.6279 105.142C54.1035 100.124 61.6419 96.6553 69.6654 95.0014C77.6889 93.3475 85.9846 93.5591 93.9167 95.6072ZM80.5 87.2083C58.2619 87.2083 40.25 69.1965 40.25 46.9583C40.25 24.7202 58.2619 6.70834 80.5 6.70834C102.738 6.70834 120.75 24.7202 120.75 46.9583C120.75 69.1965 102.738 87.2083 80.5 87.2083ZM80.5 73.7917C95.3254 73.7917 107.333 61.7838 107.333 46.9583C107.333 32.1329 95.3254 20.125 80.5 20.125C65.6746 20.125 53.6667 32.1329 53.6667 46.9583C53.6667 61.7838 65.6746 73.7917 80.5 73.7917ZM119.361 133.59L143.075 109.876L152.568 119.361L119.361 152.568L95.6407 128.847L105.133 119.361L119.361 133.59Z" fill="black"/>
</svg>
