<svg width="27" height="26" viewBox="0 0 27 26" fill="none" xmlns="http://www.w3.org/2000/svg">
<g id="Group">
<path id="Shape" fill-rule="evenodd" clip-rule="evenodd" d="M26.3401 13.2954C26.3401 12.3736 26.2574 11.4873 26.1037 10.6364H13.8601V15.665H20.8565C20.5551 17.29 19.6392 18.6668 18.2624 19.5886V22.8504H22.4637C24.9219 20.5873 26.3401 17.2545 26.3401 13.2954Z" fill="#4285F4"/>
<path id="Shape_2" fill-rule="evenodd" clip-rule="evenodd" d="M13.8602 26C17.3702 26 20.3129 24.8359 22.4638 22.8504L18.2625 19.5886C17.0984 20.3686 15.6093 20.8295 13.8602 20.8295C10.4743 20.8295 7.60837 18.5427 6.5861 15.47H2.24292V18.8382C4.38201 23.0868 8.77837 26 13.8602 26Z" fill="#34A853"/>
<path id="Shape_3" fill-rule="evenodd" clip-rule="evenodd" d="M6.58601 15.47C6.32601 14.69 6.17829 13.8568 6.17829 13C6.17829 12.1432 6.32601 11.31 6.58601 10.53V7.1618H2.24283C1.36238 8.9168 0.860107 10.9023 0.860107 13C0.860107 15.0977 1.36238 17.0832 2.24283 18.8382L6.58601 15.47Z" fill="#FBBC05"/>
<path id="Shape_4" fill-rule="evenodd" clip-rule="evenodd" d="M13.8602 5.17045C15.7688 5.17045 17.4825 5.82636 18.8297 7.11454L22.5584 3.38591C20.307 1.28818 17.3643 0 13.8602 0C8.77837 0 4.38201 2.91318 2.24292 7.16182L6.5861 10.53C7.60837 7.45727 10.4743 5.17045 13.8602 5.17045Z" fill="#EA4335"/>
</g>
</svg>
